<svg width="72" height="36" viewBox="0 0 72 36" fill="none" xmlns="http://www.w3.org/2000/svg">
<g clip-path="url(#clip0_7010_1739)">
<path d="M25.8305 35.8529L28.5908 26.0079H24.1777L24.7655 23.7787H36.6367L36.0583 26.0079H32.2038L29.4434 35.8529H25.8305Z" fill="white"/>
<path d="M34.1305 35.8529L37.4692 23.7787H47.0541L46.3385 25.9921H40.6224L39.9032 28.6258H45.4998L44.9308 30.736H39.3437L38.5776 33.6395H44.5683L43.7154 35.8529H34.1305Z" fill="white"/>
<path d="M55.4523 35.675C55.2709 35.712 55.0175 35.749 54.6922 35.786C54.3731 35.823 54.0259 35.8574 53.6505 35.8891C53.2814 35.9209 52.906 35.9473 52.5244 35.9685C52.149 35.9896 51.8112 36.0002 51.5109 36.0002C50.6538 36.0002 49.8905 35.9288 49.2211 35.786C48.5517 35.6432 47.9855 35.4132 47.5225 35.0958C47.0596 34.7785 46.7061 34.366 46.4621 33.8583C46.2181 33.3453 46.0961 32.7212 46.0961 31.9861C46.0961 31.7005 46.1118 31.4017 46.143 31.0896C46.1743 30.7776 46.2275 30.447 46.3026 30.098L46.6123 28.7176C46.85 27.6334 47.1847 26.7476 47.6164 26.06C48.0543 25.3672 48.5861 24.8251 49.2117 24.4338C49.8373 24.0371 50.5599 23.7647 51.3795 23.6167C52.2053 23.4686 53.1281 23.3945 54.1479 23.3945C54.4482 23.3945 54.7829 23.4051 55.152 23.4263C55.5211 23.4474 55.884 23.4739 56.2406 23.5056C56.6035 23.5373 56.9351 23.5743 57.2353 23.6167C57.5419 23.6537 58.0542 23.8094 58.2231 23.8517L57.6448 25.8935C57.407 25.8776 57.0101 25.8617 56.7286 25.8459C56.4471 25.83 56.153 25.8141 55.8465 25.7983C55.5462 25.7824 55.2396 25.7718 54.9268 25.7665C54.6202 25.7559 54.3199 25.7507 54.0259 25.7507C53.4941 25.7507 53.0218 25.7956 52.6089 25.8855C52.2022 25.9754 51.8425 26.142 51.5297 26.3853C51.2231 26.6233 50.9603 26.9538 50.7414 27.3769C50.5287 27.7948 50.3504 28.3342 50.2065 28.9953L49.8968 30.3756C49.7842 30.9151 49.7279 31.3646 49.7279 31.7243C49.7279 32.1051 49.7842 32.4197 49.8968 32.6683C50.0094 32.9116 50.1752 33.1046 50.3941 33.2474C50.6194 33.3902 50.8946 33.4907 51.22 33.5489C51.5516 33.6018 51.9301 33.6282 52.3555 33.6282C52.6495 33.6282 52.953 33.6256 53.2658 33.6203C53.5786 33.6097 53.8883 33.5991 54.1948 33.5886C54.5014 33.578 54.7985 33.5648 55.0863 33.5489C55.3741 33.5277 55.9114 33.5092 56.1492 33.4934L55.4523 35.675Z" fill="white"/>
<path d="M65.4786 35.8529L66.6763 30.7678H61.1712L59.7083 35.8529H56.3698L59.434 23.7787H62.7724L61.631 28.4592H67.2734L68.68 23.7787H71.9996L68.7982 35.8529H65.4786Z" fill="white"/>
<path d="M1.54153 4.21667C1.22094 7.80531 5.14821 9.57314 7.15192 10.0085C5.92298 9.64506 4.7252 7.85074 4.27993 6.999C5.90516 7.83181 10.2911 9.48607 14.8328 9.44065C19.3745 9.39522 21.356 11.2009 21.779 12.1094L13.7642 12.734L17.972 13.0747L19.8421 14.2104L23.9163 13.529C31.1831 13.7561 33.6232 18.3933 33.9348 20.6835L30.5953 19.6615C24.7178 18.2078 17.638 20.5321 14.8328 21.876L17.638 19.6615C6.95154 21.7965 1.47474 28.0085 0.0721403 30.8476C-0.515615 34.7542 2.63244 35.8823 4.27993 35.958H21.3783C23.195 35.958 23.8272 35.0116 23.9163 34.5384L24.8514 31.3586C25.8131 28.8148 23.7382 28.5195 22.5805 28.6899C20.2651 28.652 14.953 28.599 12.228 28.6899C9.50294 28.7807 8.73262 27.8192 8.6881 27.3271C8.58123 25.0558 11.0035 24.1094 12.228 23.9201L11.8272 25.3965C16.4758 21.1719 22.1352 20.2671 24.3838 20.3429C24.3838 20.3429 33.022 20.5511 35.0035 21.4785C34.0951 14.6646 27.5452 12.3933 24.3838 12.1094C22.0862 9.65642 17.5935 8.85389 15.6343 8.75926C14.5656 7.75989 15.7679 7.51005 16.5026 7.51005H26.5879C28.2443 7.51005 28.7029 6.98008 28.7252 6.71509L30.9961 1.43433C31.9579 0.116984 30.8625 -0.0609329 30.1946 0.0147774H5.01463C3.99051 -0.0798599 1.86212 0.628027 1.54153 4.21667Z" fill="#FFC700"/>
<path d="M7.68598 10.5764C2.60991 10.5764 0.539414 7.39655 0.138672 5.80664V9.27036C2.48969 10.9965 6.1498 10.8603 7.68598 10.5764Z" fill="white"/>
<path d="M10.7583 14.7782C4.98765 14.4148 1.27411 15.7625 0.138672 16.4817V20.5133C0.138672 17.1063 7.21845 15.2704 10.7583 14.7782Z" fill="white"/>
</g>
<defs>
<clipPath id="clip0_7010_1739">
<rect width="72" height="36" fill="white"/>
</clipPath>
</defs>
</svg>
